<?xml version="1.0" standalone="no"?>
<!DOCTYPE svg PUBLIC "-//W3C//DTD SVG 20010904//EN"
 "http://www.w3.org/TR/2001/REC-SVG-20010904/DTD/svg10.dtd">
<svg version="1.0" xmlns="http://www.w3.org/2000/svg"
 width="512.000000pt" height="512.000000pt" viewBox="0 0 512.000000 512.000000"
 preserveAspectRatio="xMidYMid meet">
<metadata>
Created by potrace 1.14, written by Peter Selinger 2001-2017
</metadata>
<g transform="translate(0.000000,512.000000) scale(0.100000,-0.100000)"
fill="#000000" stroke="none">
<path d="M375 4464 c-79 -16 -122 -35 -181 -80 -60 -45 -72 -57 -111 -115 -71
-103 -98 -248 -69 -370 51 -214 241 -363 465 -361 261 1 463 206 463 470 -1
218 -151 408 -362 456 -78 18 -120 18 -205 0z"/>
<path d="M1649 4463 c-36 -7 -89 -29 -129 -52 -148 -88 -232 -235 -232 -406 0
-212 130 -383 342 -453 69 -22 3024 -29 3119 -6 166 38 290 150 347 314 31 88
29 227 -5 313 -49 124 -171 242 -294 284 -49 17 -140 18 -1569 18 -1181 1
-1531 -2 -1579 -12z"/>
<path d="M2455 3030 c-842 -6 -829 -5 -914 -52 -95 -53 -162 -122 -206 -213
-124 -257 2 -557 274 -651 l66 -23 775 -1 c1948 -3 2255 -2 2304 9 127 30 264
139 318 252 70 148 60 335 -25 464 -75 114 -207 198 -334 212 -75 8 -1248 9
-2258 3z"/>
<path d="M335 3010 c-78 -25 -130 -56 -189 -113 -214 -207 -186 -554 59 -722
117 -81 276 -106 405 -65 385 122 451 632 110 852 -102 66 -267 86 -385 48z"/>
<path d="M380 1575 c-169 -36 -294 -147 -352 -312 -84 -241 47 -511 288 -592
312 -105 626 118 626 444 0 297 -275 522 -562 460z"/>
<path d="M1679 1577 c-68 -9 -181 -63 -236 -111 -124 -111 -186 -310 -144
-465 50 -180 202 -322 374 -349 29 -4 732 -8 1562 -7 1422 0 1513 1 1562 18
79 27 172 95 225 164 196 259 85 624 -223 735 l-64 23 -1501 0 c-825 0 -1525
-3 -1555 -8z"/>
</g>
</svg>
